<?xml version="1.0" standalone="no"?><!DOCTYPE svg PUBLIC "-//W3C//DTD SVG 1.1//EN" "http://www.w3.org/Graphics/SVG/1.1/DTD/svg11.dtd"><svg t="1659925261095" class="icon" viewBox="0 0 1024 1024" version="1.1" xmlns="http://www.w3.org/2000/svg" p-id="953" xmlns:xlink="http://www.w3.org/1999/xlink" width="200" height="200"><defs><style type="text/css">@font-face { font-family: feedback-iconfont; src: url("//at.alicdn.com/t/font_1031158_u69w8yhxdu.woff2?t=1630033759944") format("woff2"), url("//at.alicdn.com/t/font_1031158_u69w8yhxdu.woff?t=1630033759944") format("woff"), url("//at.alicdn.com/t/font_1031158_u69w8yhxdu.ttf?t=1630033759944") format("truetype"); }
</style></defs><path d="M0 0h1024v1024H0z" fill="#FFFFFF" p-id="954"></path><path d="M794.176 386.901333l107.669333 107.648a32 32 0 0 1 2.197334 42.816l-2.197334 2.432-362.026666 362.026667a32 32 0 0 1-42.837334 2.218667l-2.432-2.197334-107.669333-107.648 407.296-407.296zM507.456 114.304c7.701333-0.213333 15.168 2.346667 21.077333 7.168l2.432 2.197333 127.445334 127.466667-407.296 407.296-127.445334-127.466667a32 32 0 0 1-9.258666-20.096l-0.106667-3.264 8.106667-352.448a32 32 0 0 1 28.16-31.04l2.944-0.213333 353.962666-9.6zM341.333333 277.333333a64 64 0 1 0 0 128 64 64 0 0 0 0-128z" fill="#111111" p-id="955"></path></svg>